<svg xmlns="http://www.w3.org/2000/svg" xmlns:xlink="http://www.w3.org/1999/xlink" version="1.1" width="256" height="256" viewBox="0 0 256 256" xml:space="preserve">

<defs>
</defs>
<g style="stroke: none; stroke-width: 0; stroke-dasharray: none; stroke-linecap: butt; stroke-linejoin: miter; stroke-miterlimit: 10; fill: none; fill-rule: nonzero; opacity: 1;" transform="translate(1.4065934065934016 1.4065934065934016) scale(2.81 2.81)" >
	<path d="M 85.721 63.799 H 4.279 C 2.468 63.799 1 62.331 1 60.52 V 12.612 c 0 -1.811 1.468 -3.279 3.279 -3.279 h 81.442 c 1.811 0 3.279 1.468 3.279 3.279 V 60.52 C 89 62.331 87.532 63.799 85.721 63.799 z" style="stroke: none; stroke-width: 1; stroke-dasharray: none; stroke-linecap: butt; stroke-linejoin: miter; stroke-miterlimit: 10; fill: rgb(38,147,213); fill-rule: nonzero; opacity: 1;" transform=" matrix(1 0 0 1 0 0) " stroke-linecap="round" />
	<rect x="33.47" y="63.8" rx="0" ry="0" width="23.07" height="11.22" style="stroke: none; stroke-width: 1; stroke-dasharray: none; stroke-linecap: butt; stroke-linejoin: miter; stroke-miterlimit: 10; fill: rgb(165,195,220); fill-rule: nonzero; opacity: 1;" transform=" matrix(1 0 0 1 0 0) "/>
	<path d="M 66.921 80.667 H 23.079 l 0 0 c 0 -3.122 2.531 -5.652 5.652 -5.652 h 32.538 C 64.39 75.015 66.921 77.545 66.921 80.667 L 66.921 80.667 z" style="stroke: none; stroke-width: 1; stroke-dasharray: none; stroke-linecap: butt; stroke-linejoin: miter; stroke-miterlimit: 10; fill: rgb(165,195,220); fill-rule: nonzero; opacity: 1;" transform=" matrix(1 0 0 1 0 0) " stroke-linecap="round" />
	<path d="M 85.721 63.799 H 4.279 C 2.468 63.799 1 62.331 1 60.52 v -7.197 h 88 v 7.197 C 89 62.331 87.532 63.799 85.721 63.799 z" style="stroke: none; stroke-width: 1; stroke-dasharray: none; stroke-linecap: butt; stroke-linejoin: miter; stroke-miterlimit: 10; fill: rgb(215,230,240); fill-rule: nonzero; opacity: 1;" transform=" matrix(1 0 0 1 0 0) " stroke-linecap="round" />
	<path d="M 85.721 64.799 H 4.279 C 1.92 64.799 0 62.879 0 60.52 V 12.612 c 0 -2.359 1.92 -4.279 4.279 -4.279 h 81.441 c 2.359 0 4.279 1.92 4.279 4.279 V 60.52 C 90 62.879 88.08 64.799 85.721 64.799 z M 4.279 10.333 C 3.022 10.333 2 11.355 2 12.612 V 60.52 c 0 1.257 1.022 2.279 2.279 2.279 h 81.441 c 1.257 0 2.279 -1.022 2.279 -2.279 V 12.612 c 0 -1.257 -1.022 -2.279 -2.279 -2.279 H 4.279 z" style="stroke: none; stroke-width: 1; stroke-dasharray: none; stroke-linecap: butt; stroke-linejoin: miter; stroke-miterlimit: 10; fill: rgb(0,0,0); fill-rule: nonzero; opacity: 1;" transform=" matrix(1 0 0 1 0 0) " stroke-linecap="round" />
	<path d="M 56.533 76.015 H 33.467 c -0.552 0 -1 -0.447 -1 -1 V 63.799 c 0 -0.553 0.448 -1 1 -1 h 23.066 c 0.553 0 1 0.447 1 1 v 11.216 C 57.533 75.567 57.086 76.015 56.533 76.015 z M 34.467 74.015 h 21.066 v -9.216 H 34.467 V 74.015 z" style="stroke: none; stroke-width: 1; stroke-dasharray: none; stroke-linecap: butt; stroke-linejoin: miter; stroke-miterlimit: 10; fill: rgb(0,0,0); fill-rule: nonzero; opacity: 1;" transform=" matrix(1 0 0 1 0 0) " stroke-linecap="round" />
	<path d="M 66.921 81.667 H 23.079 c -0.552 0 -1 -0.447 -1 -1 c 0 -3.668 2.984 -6.652 6.652 -6.652 h 32.538 c 3.668 0 6.652 2.984 6.652 6.652 C 67.921 81.22 67.474 81.667 66.921 81.667 z M 24.188 79.667 h 41.625 c -0.459 -2.086 -2.322 -3.652 -4.544 -3.652 H 28.731 C 26.509 76.015 24.646 77.581 24.188 79.667 z" style="stroke: none; stroke-width: 1; stroke-dasharray: none; stroke-linecap: butt; stroke-linejoin: miter; stroke-miterlimit: 10; fill: rgb(0,0,0); fill-rule: nonzero; opacity: 1;" transform=" matrix(1 0 0 1 0 0) " stroke-linecap="round" />
	<path d="M 85.721 64.799 H 4.279 C 1.92 64.799 0 62.879 0 60.52 v -7.196 c 0 -0.553 0.448 -1 1 -1 h 88 c 0.553 0 1 0.447 1 1 v 7.196 C 90 62.879 88.08 64.799 85.721 64.799 z M 2 54.323 v 6.196 c 0 1.257 1.022 2.279 2.279 2.279 h 81.441 c 1.257 0 2.279 -1.022 2.279 -2.279 v -6.196 H 2 z" style="stroke: none; stroke-width: 1; stroke-dasharray: none; stroke-linecap: butt; stroke-linejoin: miter; stroke-miterlimit: 10; fill: rgb(0,0,0); fill-rule: nonzero; opacity: 1;" transform=" matrix(1 0 0 1 0 0) " stroke-linecap="round" />
	<path d="M 52.136 45.099 c -4.169 0 -9.477 -2.555 -14.079 -7.156 c -1.012 -1.012 -1.948 -2.086 -2.783 -3.193 c -0.333 -0.441 -0.245 -1.068 0.196 -1.4 c 0.441 -0.334 1.068 -0.244 1.4 0.196 c 0.779 1.033 1.654 2.037 2.601 2.983 c 5.854 5.855 13.333 8.266 16.328 5.27 c 1.243 -1.245 1.603 -3.354 1.012 -5.939 c -0.123 -0.539 0.213 -1.075 0.752 -1.198 c 0.528 -0.126 1.074 0.212 1.197 0.751 c 0.751 3.28 0.201 6.05 -1.547 7.799 C 55.936 44.49 54.172 45.099 52.136 45.099 z" style="stroke: none; stroke-width: 1; stroke-dasharray: none; stroke-linecap: butt; stroke-linejoin: miter; stroke-miterlimit: 10; fill: rgb(0,0,0); fill-rule: nonzero; opacity: 1;" transform=" matrix(1 0 0 1 0 0) " stroke-linecap="round" />
	<path d="M 53.796 28.678 c -0.301 0 -0.598 -0.135 -0.795 -0.392 c -0.744 -0.971 -1.575 -1.918 -2.472 -2.815 c -5.854 -5.853 -13.329 -8.265 -16.328 -5.27 c -1.295 1.295 -1.629 3.507 -0.941 6.229 c 0.135 0.536 -0.189 1.08 -0.725 1.215 c -0.536 0.13 -1.079 -0.189 -1.215 -0.725 c -0.867 -3.432 -0.346 -6.321 1.467 -8.134 c 3.894 -3.894 12.308 -1.578 19.156 5.27 c 0.958 0.959 1.849 1.973 2.646 3.013 c 0.336 0.438 0.253 1.066 -0.186 1.402 C 54.222 28.611 54.008 28.678 53.796 28.678 z" style="stroke: none; stroke-width: 1; stroke-dasharray: none; stroke-linecap: butt; stroke-linejoin: miter; stroke-miterlimit: 10; fill: rgb(0,0,0); fill-rule: nonzero; opacity: 1;" transform=" matrix(1 0 0 1 0 0) " stroke-linecap="round" />
	<path d="M 37.839 45.092 c -2.071 0 -3.807 -0.635 -5.052 -1.879 c -3.893 -3.894 -1.578 -12.308 5.27 -19.156 c 0.936 -0.936 1.926 -1.809 2.944 -2.593 c 0.436 -0.337 1.064 -0.257 1.402 0.181 c 0.337 0.438 0.256 1.065 -0.181 1.403 c -0.95 0.732 -1.875 1.547 -2.751 2.423 c -5.853 5.854 -8.267 13.331 -5.27 16.328 c 1.363 1.363 3.711 1.661 6.613 0.839 c 0.529 -0.151 1.084 0.158 1.234 0.689 c 0.151 0.531 -0.158 1.084 -0.689 1.234 C 40.109 44.916 38.928 45.092 37.839 45.092 z" style="stroke: none; stroke-width: 1; stroke-dasharray: none; stroke-linecap: butt; stroke-linejoin: miter; stroke-miterlimit: 10; fill: rgb(0,0,0); fill-rule: nonzero; opacity: 1;" transform=" matrix(1 0 0 1 0 0) " stroke-linecap="round" />
	<path d="M 47.72 41.245 c -0.31 0 -0.615 -0.144 -0.811 -0.414 c -0.324 -0.447 -0.225 -1.072 0.223 -1.396 c 1.18 -0.854 2.323 -1.832 3.397 -2.906 c 5.853 -5.854 8.266 -13.331 5.27 -16.328 c -1.329 -1.329 -3.608 -1.645 -6.416 -0.893 c -0.532 0.145 -1.082 -0.173 -1.225 -0.707 c -0.143 -0.533 0.174 -1.082 0.707 -1.225 c 3.527 -0.946 6.493 -0.445 8.348 1.41 c 3.893 3.894 1.578 12.308 -5.27 19.156 c -1.149 1.149 -2.373 2.196 -3.638 3.112 C 48.128 41.183 47.923 41.245 47.72 41.245 z" style="stroke: none; stroke-width: 1; stroke-dasharray: none; stroke-linecap: butt; stroke-linejoin: miter; stroke-miterlimit: 10; fill: rgb(0,0,0); fill-rule: nonzero; opacity: 1;" transform=" matrix(1 0 0 1 0 0) " stroke-linecap="round" />
	<circle cx="45.005" cy="31.005" r="3.235" style="stroke: none; stroke-width: 1; stroke-dasharray: none; stroke-linecap: butt; stroke-linejoin: miter; stroke-miterlimit: 10; fill: rgb(239,188,46); fill-rule: nonzero; opacity: 1;" transform="  matrix(1 0 0 1 0 0) "/>
	<path d="M 45 35.234 c -2.335 0 -4.234 -1.899 -4.234 -4.234 s 1.899 -4.234 4.234 -4.234 s 4.234 1.899 4.234 4.234 S 47.335 35.234 45 35.234 z M 45 28.766 c -1.232 0 -2.234 1.002 -2.234 2.234 s 1.002 2.234 2.234 2.234 c 1.232 0 2.234 -1.002 2.234 -2.234 S 46.232 28.766 45 28.766 z" style="stroke: none; stroke-width: 1; stroke-dasharray: none; stroke-linecap: butt; stroke-linejoin: miter; stroke-miterlimit: 10; fill: rgb(0,0,0); fill-rule: nonzero; opacity: 1;" transform=" matrix(1 0 0 1 0 0) " stroke-linecap="round" />
	<path d="M 80.869 18.794 H 65.551 c -0.553 0 -1 -0.448 -1 -1 s 0.447 -1 1 -1 h 15.318 c 0.553 0 1 0.448 1 1 S 81.422 18.794 80.869 18.794 z" style="stroke: none; stroke-width: 1; stroke-dasharray: none; stroke-linecap: butt; stroke-linejoin: miter; stroke-miterlimit: 10; fill: rgb(0,0,0); fill-rule: nonzero; opacity: 1;" transform=" matrix(1 0 0 1 0 0) " stroke-linecap="round" />
	<path d="M 80.869 23.794 h -9.318 c -0.553 0 -1 -0.448 -1 -1 s 0.447 -1 1 -1 h 9.318 c 0.553 0 1 0.448 1 1 S 81.422 23.794 80.869 23.794 z" style="stroke: none; stroke-width: 1; stroke-dasharray: none; stroke-linecap: butt; stroke-linejoin: miter; stroke-miterlimit: 10; fill: rgb(0,0,0); fill-rule: nonzero; opacity: 1;" transform=" matrix(1 0 0 1 0 0) " stroke-linecap="round" />
	<path d="M 80.869 28.794 h -9.318 c -0.553 0 -1 -0.448 -1 -1 s 0.447 -1 1 -1 h 9.318 c 0.553 0 1 0.448 1 1 S 81.422 28.794 80.869 28.794 z" style="stroke: none; stroke-width: 1; stroke-dasharray: none; stroke-linecap: butt; stroke-linejoin: miter; stroke-miterlimit: 10; fill: rgb(0,0,0); fill-rule: nonzero; opacity: 1;" transform=" matrix(1 0 0 1 0 0) " stroke-linecap="round" />
	<path d="M 24.449 45.118 H 9.13 c -0.552 0 -1 -0.448 -1 -1 s 0.448 -1 1 -1 h 15.319 c 0.552 0 1 0.448 1 1 S 25.001 45.118 24.449 45.118 z" style="stroke: none; stroke-width: 1; stroke-dasharray: none; stroke-linecap: butt; stroke-linejoin: miter; stroke-miterlimit: 10; fill: rgb(0,0,0); fill-rule: nonzero; opacity: 1;" transform=" matrix(1 0 0 1 0 0) " stroke-linecap="round" />
	<path d="M 18.449 40.118 H 9.13 c -0.552 0 -1 -0.448 -1 -1 s 0.448 -1 1 -1 h 9.319 c 0.552 0 1 0.448 1 1 S 19.001 40.118 18.449 40.118 z" style="stroke: none; stroke-width: 1; stroke-dasharray: none; stroke-linecap: butt; stroke-linejoin: miter; stroke-miterlimit: 10; fill: rgb(0,0,0); fill-rule: nonzero; opacity: 1;" transform=" matrix(1 0 0 1 0 0) " stroke-linecap="round" />
	<path d="M 18.449 35.118 H 9.13 c -0.552 0 -1 -0.448 -1 -1 s 0.448 -1 1 -1 h 9.319 c 0.552 0 1 0.448 1 1 S 19.001 35.118 18.449 35.118 z" style="stroke: none; stroke-width: 1; stroke-dasharray: none; stroke-linecap: butt; stroke-linejoin: miter; stroke-miterlimit: 10; fill: rgb(0,0,0); fill-rule: nonzero; opacity: 1;" transform=" matrix(1 0 0 1 0 0) " stroke-linecap="round" />
</g>
</svg>
